<svg width="103" height="19" viewBox="0 0 103 19" fill="none" xmlns="http://www.w3.org/2000/svg">
<path d="M0 16.015H5.11845C10.2834 16.015 13.0986 13.2905 13.0986 8.19701C13.0986 3.00873 10.3765 0.28429 5.35111 0.28429H0V16.015ZM2.32657 2.36908H5.35111C8.9573 2.36908 10.6557 4.16958 10.6557 8.10224V8.24439C10.6557 12.0586 8.84097 13.9302 5.18825 13.9302H2.32657V2.36908Z" fill="black"/>
<path d="M17.4833 0.28429H15.1567V16.015H17.4833V0.28429Z" fill="black"/>
<path d="M25.9229 16.2756C29.4128 16.2756 31.4834 14.2855 31.4834 11.419C31.4834 8.33915 28.8776 7.53367 26.3417 7.03616C24.1314 6.60973 22.1073 6.27806 22.1073 4.59601C22.1073 3.0798 23.2939 2.08479 25.2017 2.08479C27.3188 2.08479 28.5985 2.96135 28.9242 5.25935H31.4136C30.9483 1.72943 28.6915 0 25.2249 0C22.0608 0 19.804 1.99003 19.804 4.71446C19.804 7.74688 22.5261 8.59975 25.0853 9.12095C27.3188 9.54738 29.1568 9.97381 29.1568 11.5374C29.1568 13.1958 27.947 14.1908 25.8531 14.1908C23.48 14.1908 22.2702 13.3142 21.8049 10.9925H19.2922C19.8971 14.404 21.991 16.2756 25.9229 16.2756Z" fill="black"/>
<path d="M44.125 19H46.8937C45.9165 17.318 44.823 16.2045 43.4969 15.6833C46.1957 14.5461 47.8243 11.8454 47.8243 8.19701C47.8243 3.26933 44.8695 0 40.3793 0C35.7959 0 32.8179 3.24564 32.8179 8.17332C32.8179 12.6509 35.2143 15.6596 38.9833 16.2045C38.3784 16.702 37.9131 17.3653 37.6339 18.1234H39.1927C39.3788 17.4838 40.1001 16.6546 41.1703 16.6546C42.543 16.6546 43.3573 17.4601 44.125 19ZM40.2862 14.2618C37.1686 14.2618 35.2375 11.9638 35.2375 8.29177V8.07855C35.2375 4.3591 37.1453 2.13217 40.356 2.13217C43.4736 2.13217 45.4047 4.40648 45.4047 8.07855V8.29177C45.4047 12.0112 43.4969 14.2618 40.2862 14.2618Z" fill="black"/>
<path d="M55.9686 16.2993C59.7609 16.2993 62.0642 14.1908 62.0642 9.80798V0.28429H59.7609V9.80798C59.7609 12.8167 58.6208 14.1908 55.9453 14.1908C53.293 14.1908 52.0599 12.7693 52.0599 9.78429V0.28429H49.7333V9.83167C49.7333 14.0486 51.8738 16.2993 55.9686 16.2993Z" fill="black"/>
<path d="M66.9456 0.28429H64.619V16.015H66.9456V0.28429Z" fill="black"/>
<path d="M77.5722 6.77556H71.9186V2.39277H80.3874V0.28429H69.6153V16.015H80.7364V13.9065H71.9186V8.88404H77.5722V6.77556Z" fill="black"/>
<path d="M93.9202 0.28429H81.7522V2.39277H86.6613V16.015H88.9879V2.39277H93.9202V0.28429Z" fill="black"/>
<path d="M95.8574 7.39152L98.4399 5.59102L98.1607 8.7419H99.8824L99.6265 5.61471L102.116 7.39152L103 5.85162L100.208 4.50125L102.93 3.15087L102.093 1.63466L99.6265 3.41147L99.8824 0.28429H98.1607L98.4399 3.41147L95.904 1.63466L95.0664 3.15087L97.7652 4.47756L94.9966 5.85162L95.8574 7.39152Z" fill="black"/>
</svg>
