<svg width="24" height="24" viewBox="0 0 24 24"  xmlns="http://www.w3.org/2000/svg">
<path d="M11.9923 19.4933C16.2637 19.4933 19.7894 15.9676 19.7894 11.7037C19.7894 7.43973 16.2562 3.91406 11.9847 3.91406C7.72077 3.91406 4.20264 7.43973 4.20264 11.7037C4.20264 15.9676 7.72831 19.4933 11.9923 19.4933ZM11.9923 17.9414C8.53439 17.9414 5.7696 15.1616 5.7696 11.7037C5.7696 8.24581 8.53439 5.47349 11.9847 5.47349C15.4426 5.47349 18.2224 8.24581 18.23 11.7037C18.2375 15.1616 15.4501 17.9414 11.9923 17.9414ZM14.6064 9.47377H9.37814C9.009 9.47377 8.85079 9.90318 9.04667 10.2347L11.5854 14.5438C11.7663 14.8527 12.2183 14.8677 12.4066 14.5438L14.9303 10.2347C15.1413 9.88058 14.968 9.47377 14.6064 9.47377Z" />
</svg>
