<svg width="24" height="24" viewBox="0 0 24 24" fill="none" xmlns="http://www.w3.org/2000/svg">
<path d="M11.9925 19.4933C16.264 19.4933 19.7897 15.9676 19.7897 11.7037C19.7897 7.43973 16.2565 3.91406 11.985 3.91406C7.72102 3.91406 4.20288 7.43973 4.20288 11.7037C4.20288 15.9676 7.72855 19.4933 11.9925 19.4933ZM11.9925 17.9414C8.53463 17.9414 5.76984 15.1616 5.76984 11.7037C5.76984 8.24581 8.53463 5.47349 11.985 5.47349C15.4428 5.47349 18.2227 8.24581 18.2302 11.7037C18.2378 15.1616 15.4504 17.9414 11.9925 17.9414ZM15.8798 11.7037C15.8798 11.5003 15.8044 11.3345 15.6312 11.1688L13.0698 8.64509C12.9493 8.52455 12.7986 8.46429 12.6178 8.46429C12.2637 8.46429 12.0076 8.72796 12.0076 9.08203C12.0076 9.27037 12.0904 9.42857 12.2034 9.54157L13.115 10.4155L13.9587 11.101L12.4219 11.0257H8.74557C8.36136 11.0257 8.09016 11.3119 8.09016 11.7037C8.09016 12.0879 8.36136 12.3817 8.74557 12.3817H12.4219L13.9663 12.3139L13.1225 12.9919L12.2034 13.8658C12.0754 13.9788 12.0076 14.137 12.0076 14.3253C12.0076 14.6794 12.2637 14.9506 12.6178 14.9506C12.7986 14.9506 12.9493 14.8828 13.0698 14.7623L15.6312 12.2461C15.7969 12.0804 15.8798 11.9146 15.8798 11.7037Z" fill="#C4C4C4"/>
</svg>
