<svg width="24" height="24" viewBox="0 0 24 24" fill="none" xmlns="http://www.w3.org/2000/svg">
<path d="M4.86572 11.846C4.86572 12.072 4.96366 12.298 5.13693 12.4637L10.109 17.4283C10.2898 17.6016 10.4857 17.6844 10.7042 17.6844C11.1788 17.6844 11.5253 17.3454 11.5253 16.8859C11.5253 16.6448 11.4349 16.4414 11.2767 16.2907L9.58168 14.5731L7.39697 12.5767L9.15227 12.6822H18.2829C18.7801 12.6822 19.1266 12.3357 19.1266 11.846C19.1266 11.3488 18.7801 11.0022 18.2829 11.0022H9.15227L7.40451 11.1077L9.58168 9.11133L11.2767 7.39369C11.4349 7.24302 11.5253 7.03962 11.5253 6.79855C11.5253 6.33901 11.1788 6 10.7042 6C10.4857 6 10.2823 6.08287 10.0864 6.27121L5.13693 11.2207C4.96366 11.3864 4.86572 11.6124 4.86572 11.846Z" fill="#C4C4C4"/>
</svg>
