<svg width="28" height="28" viewBox="0 0 28 28" fill="none" xmlns="http://www.w3.org/2000/svg">
<path d="M7.47896 19.3682H20.521C21.3611 19.3682 21.875 18.9085 21.875 18.219C21.875 17.349 21.092 16.602 20.3579 15.8961C19.7788 15.3297 19.6483 14.1477 19.5423 13.0561C19.4118 10.0518 18.539 7.9341 16.4265 7.17073C16.0921 6.08724 15.2031 5.25 13.9959 5.25C12.7969 5.25 11.9079 6.08724 11.5653 7.17073C9.46097 7.9341 8.58008 10.0518 8.45773 13.0561C8.3517 14.1477 8.21304 15.3297 7.64209 15.8961C6.90801 16.602 6.125 17.349 6.125 18.219C6.125 18.9085 6.63885 19.3682 7.47896 19.3682ZM13.9959 22.75C15.4478 22.75 16.4999 21.7076 16.606 20.5174H11.394C11.5001 21.7076 12.5522 22.75 13.9959 22.75Z" fill="#C4C4C4"/>
</svg>
