
<svg width="24" height="24" viewBox="0 0 24 24" xmlns="http://www.w3.org/2000/svg">
<path d="M19 12.0039C19 11.764 18.9039 11.5319 18.7338 11.3617L13.8748 6.27853C13.6825 6.08511 13.4828 6 13.2758 6C12.8024 6 12.4622 6.34816 12.4622 6.82012C12.4622 7.0677 12.5584 7.2766 12.7063 7.43133L14.3703 9.19536L16.5151 11.2456L14.7993 11.1373H5.83571C5.3402 11.1373 5 11.4932 5 12.0039C5 12.5068 5.3402 12.8627 5.83571 12.8627H14.7993L16.5151 12.7544L14.3703 14.8046L12.7063 16.5687C12.5584 16.7234 12.4622 16.9323 12.4622 17.1799C12.4622 17.6518 12.8024 18 13.2758 18C13.4828 18 13.6825 17.9149 13.86 17.7369L18.7338 12.6383C18.9039 12.4681 19 12.236 19 12.0039Z" />
</svg>
