
<svg width="24" height="24" viewBox="0 0 24 24" xmlns="http://www.w3.org/2000/svg">
<path d="M5 12.0039C5 12.236 5.09614 12.4681 5.26624 12.6383L10.1474 17.7369C10.3249 17.9149 10.5172 18 10.7316 18C11.1976 18 11.5378 17.6518 11.5378 17.1799C11.5378 16.9323 11.449 16.7234 11.2937 16.5687L9.62969 14.8046L7.48494 12.7544L9.20814 12.8627H18.1717C18.6598 12.8627 19 12.5068 19 12.0039C19 11.4932 18.6598 11.1373 18.1717 11.1373H9.20814L7.49234 11.2456L9.62969 9.19536L11.2937 7.43133C11.449 7.2766 11.5378 7.0677 11.5378 6.82012C11.5378 6.34816 11.1976 6 10.7316 6C10.5172 6 10.3175 6.08511 10.1252 6.27853L5.26624 11.3617C5.09614 11.5319 5 11.764 5 12.0039Z" />
</svg>
