<svg width="28" height="28" viewBox="0 0 28 28"  xmlns="http://www.w3.org/2000/svg">
<path d="M13.9957 23C18.9285 23 23 18.9265 23 14C23 9.0735 18.9198 5 13.987 5C9.06283 5 5 9.0735 5 14C5 18.9265 9.07153 23 13.9957 23ZM13.9696 18.178C13.3867 18.178 13.0648 17.7689 13.0648 17.1509V11.2843H11.116C10.6636 11.2843 10.3504 11.0058 10.3504 10.5619C10.3504 10.1006 10.6636 9.83075 11.116 9.83075H16.8666C17.319 9.83075 17.6235 10.1006 17.6235 10.5619C17.6235 11.0058 17.319 11.2843 16.8666 11.2843H14.8917V17.1509C14.8917 17.7863 14.5698 18.178 13.9696 18.178Z" />
</svg>
