<svg width="24" height="24" viewBox="0 0 24 24" xmlns="http://www.w3.org/2000/svg">
<path d="M6.80933 18.755H17.1829C18.8177 18.755 19.669 17.9113 19.669 16.2991V7.13084C19.669 5.51868 18.8177 4.67493 17.1829 4.67493H6.80933C5.18209 4.67493 4.33081 5.51114 4.33081 7.13084V16.2991C4.33081 17.9113 5.18209 18.755 6.80933 18.755ZM6.80179 17.2558C6.17651 17.2558 5.82997 16.9319 5.82997 16.269V9.33815C5.82997 8.67521 6.17651 8.35127 6.80179 8.35127H17.1905C17.8157 8.35127 18.1623 8.67521 18.1623 9.33815V16.269C18.1623 16.9319 17.8157 17.2558 17.1905 17.2558H6.80179ZM10.5459 10.9503H10.9904C11.2616 10.9503 11.352 10.8674 11.352 10.6038V10.1593C11.352 9.8881 11.2616 9.80523 10.9904 9.80523H10.5459C10.2747 9.80523 10.1843 9.8881 10.1843 10.1593V10.6038C10.1843 10.8674 10.2747 10.9503 10.5459 10.9503ZM13.0094 10.9503H13.4539C13.7175 10.9503 13.8079 10.8674 13.8079 10.6038V10.1593C13.8079 9.8881 13.7175 9.80523 13.4539 9.80523H13.0094C12.7382 9.80523 12.6478 9.8881 12.6478 10.1593V10.6038C12.6478 10.8674 12.7382 10.9503 13.0094 10.9503ZM15.4653 10.9503H15.9098C16.181 10.9503 16.2714 10.8674 16.2714 10.6038V10.1593C16.2714 9.8881 16.181 9.80523 15.9098 9.80523H15.4653C15.2016 9.80523 15.1112 9.8881 15.1112 10.1593V10.6038C15.1112 10.8674 15.2016 10.9503 15.4653 10.9503ZM8.09002 13.3761H8.52696C8.79817 13.3761 8.88857 13.2932 8.88857 13.022V12.5775C8.88857 12.3139 8.79817 12.231 8.52696 12.231H8.09002C7.81881 12.231 7.72841 12.3139 7.72841 12.5775V13.022C7.72841 13.2932 7.81881 13.3761 8.09002 13.3761ZM10.5459 13.3761H10.9904C11.2616 13.3761 11.352 13.2932 11.352 13.022V12.5775C11.352 12.3139 11.2616 12.231 10.9904 12.231H10.5459C10.2747 12.231 10.1843 12.3139 10.1843 12.5775V13.022C10.1843 13.2932 10.2747 13.3761 10.5459 13.3761ZM13.0094 13.3761H13.4539C13.7175 13.3761 13.8079 13.2932 13.8079 13.022V12.5775C13.8079 12.3139 13.7175 12.231 13.4539 12.231H13.0094C12.7382 12.231 12.6478 12.3139 12.6478 12.5775V13.022C12.6478 13.2932 12.7382 13.3761 13.0094 13.3761ZM15.4653 13.3761H15.9098C16.181 13.3761 16.2714 13.2932 16.2714 13.022V12.5775C16.2714 12.3139 16.181 12.231 15.9098 12.231H15.4653C15.2016 12.231 15.1112 12.3139 15.1112 12.5775V13.022C15.1112 13.2932 15.2016 13.3761 15.4653 13.3761ZM8.09002 15.7943H8.52696C8.79817 15.7943 8.88857 15.7115 8.88857 15.4478V15.0033C8.88857 14.7321 8.79817 14.6493 8.52696 14.6493H8.09002C7.81881 14.6493 7.72841 14.7321 7.72841 15.0033V15.4478C7.72841 15.7115 7.81881 15.7943 8.09002 15.7943ZM10.5459 15.7943H10.9904C11.2616 15.7943 11.352 15.7115 11.352 15.4478V15.0033C11.352 14.7321 11.2616 14.6493 10.9904 14.6493H10.5459C10.2747 14.6493 10.1843 14.7321 10.1843 15.0033V15.4478C10.1843 15.7115 10.2747 15.7943 10.5459 15.7943ZM13.0094 15.7943H13.4539C13.7175 15.7943 13.8079 15.7115 13.8079 15.4478V15.0033C13.8079 14.7321 13.7175 14.6493 13.4539 14.6493H13.0094C12.7382 14.6493 12.6478 14.7321 12.6478 15.0033V15.4478C12.6478 15.7115 12.7382 15.7943 13.0094 15.7943Z" fill="#FD88AA"/>
</svg>
