<svg width="16" height="16" viewBox="0 0 16 16" xmlns="http://www.w3.org/2000/svg">
<path d="M4.18919 10.86C3.94169 11.1074 3.92991 11.5493 4.19508 11.8026C4.44846 12.0677 4.8963 12.0559 5.14379 11.8085L8.00172 8.95132L10.8597 11.8085C11.113 12.0618 11.5491 12.0677 11.8025 11.8026C12.0676 11.5493 12.0618 11.1074 11.8084 10.8541L8.95044 7.99698L11.8084 5.14573C12.0618 4.88652 12.0676 4.45059 11.8025 4.19727C11.5491 3.93218 11.113 3.93807 10.8597 4.19138L8.00172 7.04852L5.14379 4.19138C4.8963 3.94396 4.44846 3.93218 4.19508 4.19727C3.92991 4.45059 3.94169 4.89241 4.18919 5.13984L7.04712 7.99698L4.18919 10.86Z" />
</svg>
