<svg width="9" height="9" viewBox="0 0 9 9" xmlns="http://www.w3.org/2000/svg">
<path d="M1.21066 5.2109H4.12235V8.1226C4.12235 8.41854 4.36579 8.66675 4.6665 8.66675C4.96722 8.66675 5.21066 8.41854 5.21066 8.1226V5.2109H8.12235C8.41829 5.2109 8.6665 4.96746 8.6665 4.66675C8.6665 4.36603 8.41829 4.1226 8.12235 4.1226H5.21066V1.2109C5.21066 0.914958 4.96722 0.666748 4.6665 0.666748C4.36579 0.666748 4.12235 0.914958 4.12235 1.2109V4.1226H1.21066C0.914714 4.1226 0.666504 4.36603 0.666504 4.66675C0.666504 4.96746 0.914714 5.2109 1.21066 5.2109Z" />
</svg>
