<svg width="16" height="16" viewBox="0 0 16 16" fill="none" xmlns="http://www.w3.org/2000/svg">
<path d="M5.12009 8.45366H7.5465V10.8801C7.5465 11.1267 7.74936 11.3335 7.99996 11.3335C8.25056 11.3335 8.45342 11.1267 8.45342 10.8801V8.45366H10.8798C11.1265 8.45366 11.3333 8.2508 11.3333 8.0002C11.3333 7.74961 11.1265 7.54674 10.8798 7.54674H8.45342V5.12033C8.45342 4.87371 8.25056 4.66687 7.99996 4.66687C7.74936 4.66687 7.5465 4.87371 7.5465 5.12033V7.54674H5.12009C4.87347 7.54674 4.66663 7.74961 4.66663 8.0002C4.66663 8.2508 4.87347 8.45366 5.12009 8.45366Z" fill="#C4C4C4"/>
<rect x="0.5" y="0.5" width="15" height="15" rx="7.5" stroke="#E5E5E8"/>
</svg>
