<svg width="10" height="10" viewBox="0 0 10 10" xmlns="http://www.w3.org/2000/svg">
<path d="M0.680191 5.68044H4.31981V9.32005C4.31981 9.68998 4.6241 10.0002 5 10.0002C5.37589 10.0002 5.68019 9.68998 5.68019 9.32005V5.68044H9.31981C9.68974 5.68044 10 5.37614 10 5.00024C10 4.62435 9.68974 4.32005 9.31981 4.32005H5.68019V0.680435C5.68019 0.310507 5.37589 0.000244141 5 0.000244141C4.6241 0.000244141 4.31981 0.310507 4.31981 0.680435V4.32005H0.680191C0.310263 4.32005 0 4.62435 0 5.00024C0 5.37614 0.310263 5.68044 0.680191 5.68044Z" />
</svg>
