<svg width="24" height="24" viewBox="0 0 24 24" fill="none" xmlns="http://www.w3.org/2000/svg">
<path d="M7.68016 12.6804H11.3198V16.32C11.3198 16.69 11.6241 17.0002 12 17.0002C12.3759 17.0002 12.6802 16.69 12.6802 16.32V12.6804H16.3198C16.6897 12.6804 17 12.3761 17 12.0002C17 11.6243 16.6897 11.32 16.3198 11.32H12.6802V7.6804C12.6802 7.31048 12.3759 7.00021 12 7.00021C11.6241 7.00021 11.3198 7.31048 11.3198 7.6804V11.32H7.68016C7.31023 11.32 6.99997 11.6243 6.99997 12.0002C6.99997 12.3761 7.31023 12.6804 7.68016 12.6804Z" fill="#C4C4C4"/>
<rect x="0.5" y="0.5" width="23" height="23" rx="11.5" stroke="#E5E5E8"/>
</svg>
