<svg width="18" height="18" viewBox="0 0 18 18" xmlns="http://www.w3.org/2000/svg">
<path d="M8.99986 3.21423C5.76378 3.21423 3.08612 5.15454 2.63666 7.6772C2.59308 7.9241 2.57129 8.17368 2.57129 8.42863C2.57129 9.37329 2.88182 10.2589 3.42117 11.0211C3.95779 11.7805 4.72323 12.4193 5.6412 12.8755C5.63576 13.5545 5.25985 14.1449 4.70416 14.4642C4.71505 14.4642 4.72595 14.4642 4.73685 14.4642C5.73382 14.4642 6.63818 14.0831 7.31372 13.4605C7.85035 13.5786 8.41693 13.643 8.99986 13.643C12.5519 13.643 15.4284 11.3082 15.4284 8.42595C15.4284 5.54367 12.5519 3.21423 8.99986 3.21423Z" />
</svg>
