<svg width="20" height="20" viewBox="0 0 20 20" xmlns="http://www.w3.org/2000/svg">
<path d="M6.24485 10.0037C6.24485 9.20803 5.59785 8.56104 4.776 8.56104C3.98036 8.56104 3.33337 9.20803 3.33337 10.0037C3.33337 10.808 3.98036 11.4375 4.776 11.4375C5.59785 11.4375 6.24485 10.808 6.24485 10.0037ZM11.4383 10.0037C11.4383 9.20803 10.8 8.56104 9.99568 8.56104C9.20004 8.56104 8.5618 9.20803 8.5618 10.0037C8.5618 10.808 9.20004 11.4375 9.99568 11.4375C10.8 11.4375 11.4383 10.808 11.4383 10.0037ZM16.6667 10.0037C16.6667 9.20803 16.0197 8.56104 15.2241 8.56104C14.4022 8.56104 13.7552 9.20803 13.7552 10.0037C13.7552 10.808 14.4022 11.4375 15.2241 11.4375C16.0197 11.4375 16.6667 10.808 16.6667 10.0037Z" />
</svg>
