<svg width="24" height="24" viewBox="0 0 24 24"  xmlns="http://www.w3.org/2000/svg">
<path d="M12.0001 19.4857C16.2565 19.4857 19.7822 15.9676 19.7822 11.7037C19.7822 7.44724 16.2565 3.92157 11.9926 3.92157C7.73615 3.92157 4.21802 7.44724 4.21802 11.7037C4.21802 15.9676 7.74369 19.4857 12.0001 19.4857ZM12.0001 18.2804C8.75317 18.2804 6.00345 15.8471 5.50624 12.7207C5.55144 12.7282 5.58911 12.7282 5.63431 12.7282C6.44039 12.7282 6.97527 12.0427 6.97527 10.9955C6.97527 10.664 7.03554 10.5661 7.25401 10.4606L7.73615 10.2346C7.99229 10.1066 8.22583 10.2045 8.38403 10.423L9.28052 11.7338C10.1092 12.9316 10.953 13.4213 11.7289 13.4213C12.4747 13.4213 12.9795 12.9467 12.9795 12.2159C12.9795 11.7865 12.761 11.4174 12.4069 11.1838C12.1809 11.0256 12.2487 10.8448 12.4521 10.8448C14.2903 10.8448 15.2621 10.1819 15.2621 8.84847C15.2621 7.08563 13.7705 6.9877 13.7705 6.53569C13.7705 6.26448 14.1095 6.11381 14.343 5.5714C16.7989 6.52815 18.5768 8.93134 18.5768 11.7037C18.5768 12.3967 18.4638 13.0672 18.2604 13.7C17.8687 13.3761 17.5523 13.2405 17.1831 13.2405C16.8969 13.2405 16.7387 13.3158 16.5805 13.3686C16.4223 13.4138 16.3469 13.346 16.3243 13.2104C16.249 12.6604 15.9024 12.4419 15.345 12.4419H14.9532C14.4937 12.4419 14.1245 12.683 13.8458 13.1124L13.7253 13.3008C13.5369 13.5946 13.3712 13.8356 13.2055 13.9938C13.0473 14.137 12.9267 14.2048 12.6179 14.3027L12.2713 14.4082C11.744 14.5739 11.5858 15.0335 11.7289 15.5457L12.0905 16.8189C12.2261 17.286 12.5048 17.527 12.9569 17.527C13.1527 17.527 13.3938 17.4517 13.6424 17.3312L13.7554 17.2784C13.9287 17.1956 14.0567 17.1654 14.1848 17.1654C14.4786 17.1654 14.6745 17.3086 14.9005 17.5948C14.0266 18.0318 13.0397 18.2804 12.0001 18.2804Z" />
</svg>
