<svg width="24" height="24" viewBox="0 0 24 24"  xmlns="http://www.w3.org/2000/svg">
<path d="M5.26514 18.3783C5.26514 19.0111 5.41581 19.3954 6.00342 19.6816C7.29918 20.2617 9.10721 20.6308 11.2317 20.6384C13.4164 20.6308 15.8497 20.2994 17.5447 19.4858C18.4864 19.0262 18.735 18.6043 18.735 17.6175V6.09876C18.735 4.81053 18.1399 4.20032 16.9044 4.20032H16.1887V3.94418C16.1887 3.1607 15.7668 2.77649 15.0587 2.77649C14.8176 2.77649 14.5313 2.82922 14.1998 2.94223C11.9247 3.67297 9.84549 4.16265 7.19371 4.16265H6.62116C5.75481 4.16265 5.26514 4.65986 5.26514 5.45088V18.3783ZM9.19761 19.1467C11.8795 19.0413 14.2902 18.303 15.6161 17.2935C16.0305 16.9771 16.1887 16.6607 16.1887 15.9601V5.61661H16.8667C17.1756 5.61661 17.3187 5.77482 17.3187 6.12136V17.4668C17.3187 17.9113 17.2434 18.0996 16.814 18.2804C15.4429 18.8831 13.5595 19.2597 11.7741 19.2823C10.9152 19.2899 10.0866 19.2522 9.19761 19.1467ZM8.03746 10.0538V7.46985C8.03746 7.36438 8.12033 7.27398 8.2258 7.26644C9.96603 7.19864 11.533 6.91237 13.1452 6.30969C13.2431 6.27956 13.3938 6.31723 13.3938 6.49803V9.17995C13.3938 9.24775 13.3561 9.31555 13.2883 9.34569C11.8795 9.91823 10.0263 10.2346 8.2258 10.2346C8.12786 10.2346 8.03746 10.1744 8.03746 10.0538Z" />
</svg>
