<svg width="24" height="24" viewBox="0 0 24 24" fill="none" xmlns="http://www.w3.org/2000/svg">
<path d="M10.1904 16.3807C11.441 16.3807 12.613 16.0031 13.5884 15.3582L17.0336 18.8112C17.2617 19.0315 17.5527 19.1416 17.8673 19.1416C18.5202 19.1416 19 18.6303 19 17.9853C19 17.6864 18.8977 17.3954 18.6775 17.1751L15.2559 13.7378C15.9638 12.731 16.3807 11.5118 16.3807 10.1904C16.3807 6.78448 13.5962 4 10.1904 4C6.79234 4 4 6.78448 4 10.1904C4 13.5962 6.78448 16.3807 10.1904 16.3807ZM10.1904 14.7289C7.69691 14.7289 5.65181 12.6838 5.65181 10.1904C5.65181 7.69691 7.69691 5.65181 10.1904 5.65181C12.6838 5.65181 14.7289 7.69691 14.7289 10.1904C14.7289 12.6838 12.6838 14.7289 10.1904 14.7289Z" fill="#8E8E8E"/>
</svg>
