<svg width="34" height="34" viewBox="0 0 34 34" fill="none" xmlns="http://www.w3.org/2000/svg">
<path d="M16.9942 29C23.5713 29 29 23.5713 29 16.9942C29 10.4287 23.5597 5 16.9826 5C10.4171 5 5 10.4287 5 16.9942C5 23.5713 10.4287 29 16.9942 29ZM21.7037 13.7811L20.1493 12.2267L21.0193 11.3567C21.4485 10.9391 21.9357 10.9043 22.3301 11.2987L22.6201 11.5887C23.0145 11.9831 23.0029 12.4819 22.5737 12.9111L21.7037 13.7811ZM13.2823 22.1793L11.6235 22.8057C11.2871 22.9217 10.9159 22.5969 11.0783 22.2257L11.7395 20.6249L19.4186 12.9459L20.9729 14.5002L13.2823 22.1793Z" fill="#6D55FF"/>
</svg>
