<svg width="18" height="18" viewBox="0 0 18 18" fill="none" xmlns="http://www.w3.org/2000/svg">
<path d="M4.90937 9.42188H8.35594V12.8684C8.35594 13.2188 8.64409 13.5126 9.00005 13.5126C9.35601 13.5126 9.64416 13.2188 9.64416 12.8684V9.42188H13.0907C13.441 9.42188 13.7348 9.13372 13.7348 8.77776C13.7348 8.42181 13.441 8.13365 13.0907 8.13365H9.64416V4.68708C9.64416 4.33677 9.35601 4.04297 9.00005 4.04297C8.64409 4.04297 8.35594 4.33677 8.35594 4.68708V8.13365H4.90937C4.55906 8.13365 4.26526 8.42181 4.26526 8.77776C4.26526 9.13372 4.55906 9.42188 4.90937 9.42188Z" fill="white"/>
</svg>
