<svg width="28" height="28" viewBox="0 0 28 28" fill="none" xmlns="http://www.w3.org/2000/svg">
<path fill-rule="evenodd" clip-rule="evenodd" d="M10.3449 23.8549C9.87086 24.3015 9.57696 24.5 9.17876 24.5C8.60043 24.5 8.2686 24.0832 8.2686 23.4282V20.5501H7.88937C5.1589 20.5501 3.49976 18.8431 3.49976 15.8856V8.17437C3.49976 5.22683 5.11149 3.49998 7.95574 3.49998H20.0438C22.8975 3.49998 24.4998 5.22683 24.4998 8.17437V15.8856C24.4998 18.8332 22.8975 20.56 20.0438 20.56L13.8433 20.5501L10.3449 23.8549ZM14.8592 13.2305C14.8158 13.6359 14.4907 13.9537 13.938 13.9537C13.3311 13.9537 13.006 13.6688 13.006 13.099V12.9894C13.006 12.1018 13.5153 11.5868 14.2089 11.0937C15.0326 10.5129 15.4444 10.1842 15.4444 9.58153C15.4444 8.91311 14.9459 8.46384 14.1656 8.46384C13.5912 8.46384 13.1685 8.7597 12.8542 9.24184C12.8134 9.29081 12.7755 9.33871 12.7389 9.38489C12.5138 9.66936 12.3405 9.88835 11.8464 9.88835C11.3912 9.88835 11.0227 9.59249 11.0227 9.11035C11.0227 8.92407 11.0444 8.7597 11.1094 8.57342C11.4345 7.65296 12.5616 6.87496 14.2523 6.87496C16.0079 6.87496 17.471 7.82829 17.471 9.47196C17.471 10.6335 16.8641 11.2033 15.8887 11.8388C15.2385 12.2662 14.8917 12.5949 14.87 13.1099C14.87 13.1264 14.8673 13.1483 14.8646 13.1702C14.8619 13.1921 14.8592 13.214 14.8592 13.2305ZM15.0759 15.9151C15.0759 16.5507 14.5557 17 13.9272 17C13.2986 17 12.7675 16.5397 12.7675 15.9151C12.7675 15.2796 13.2877 14.8194 13.9272 14.8194C14.5666 14.8194 15.0759 15.2905 15.0759 15.9151Z" fill="#F2994A"/>
</svg>
